<svg width="20" height="20" viewBox="0 0 20 20" fill="none" xmlns="http://www.w3.org/2000/svg">
<g clip-path="url(#clip0)">
<path d="M19.8736 2.90898C19.7641 2.77215 19.5984 2.6925 19.4231 2.6925H4.06844L3.63906 0.831953C3.57863 0.570195 3.34555 0.384766 3.07691 0.384766H0.576914C0.25832 0.384766 0 0.643086 0 0.961719C0 1.28035 0.25832 1.53863 0.576914 1.53863H2.61797L5.5325 14.1684C5.59289 14.4301 5.82602 14.6155 6.09465 14.6155H17.6538C17.9725 14.6155 18.2307 14.3572 18.2307 14.0386C18.2307 13.72 17.9724 13.4617 17.6538 13.4617H6.55363L6.10988 11.5386H17.6923C17.9622 11.5386 18.196 11.3516 18.2552 11.0884L19.9859 3.39605C20.0244 3.22504 19.9831 3.04586 19.8736 2.90898Z" fill="white"/>
<path d="M8.46158 15.3848C7.29518 15.3848 6.34619 16.3337 6.34619 17.5002C6.34619 18.6666 7.29514 19.6155 8.46158 19.6155C9.62799 19.6155 10.577 18.6666 10.577 17.5002C10.577 16.3337 9.62803 15.3848 8.46158 15.3848Z" fill="white"/>
<path d="M15.3844 15.3848C14.218 15.3848 13.269 16.3337 13.269 17.5002C13.269 18.6666 14.218 19.6155 15.3844 19.6155C16.5508 19.6155 17.4998 18.6666 17.4998 17.5002C17.4998 16.3337 16.5509 15.3848 15.3844 15.3848Z" fill="white"/>
</g>
<defs>
<clipPath id="clip0">
<rect width="20" height="20" fill="white"/>
</clipPath>
</defs>
</svg>
