<svg width="24" height="24" viewBox="0 0 24 24" fill="none" xmlns="http://www.w3.org/2000/svg">
<g clip-path="url(#clip0)">
<path d="M12.0003 8.72656C10.1948 8.72656 8.72754 10.1938 8.72754 11.9993C8.72754 13.8048 10.1948 15.272 12.0003 15.272C13.8057 15.272 15.273 13.8048 15.273 11.9993C15.273 10.1938 13.8057 8.72656 12.0003 8.72656Z" fill="#1273EB"/>
<path d="M12 3.81738C6.54546 3.81738 1.88729 7.21008 0 11.9992C1.88729 16.7883 6.54546 20.181 12 20.181C17.46 20.181 22.1128 16.7883 24.0001 11.9992C22.1128 7.21008 17.46 3.81738 12 3.81738ZM12 17.4537C8.98911 17.4537 6.54546 15.0101 6.54546 11.9992C6.54546 8.98824 8.98911 6.54464 12 6.54464C15.0109 6.54464 17.4546 8.9883 17.4546 11.9992C17.4546 15.0101 15.0109 17.4537 12 17.4537Z" fill="#1273EB"/>
</g>
<defs>
<clipPath id="clip0">
<rect width="24" height="24" fill="white"/>
</clipPath>
</defs>
</svg>
