<svg width="20" height="20" viewBox="0 0 20 20" fill="none" xmlns="http://www.w3.org/2000/svg">
<g clip-path="url(#clip0)">
<path d="M11.0431 13.9425C10.3558 14.2356 9.58464 14.2302 8.90319 13.9313C8.81137 13.891 8.85432 13.7526 8.95248 13.773C9.62801 13.9138 10.3253 13.9161 10.9955 13.7838C11.0939 13.7643 11.1354 13.9031 11.0431 13.9425ZM16.148 3.32011C15.5173 2.31815 14.5499 1.61866 13.4355 1.3412C13.6227 1.18422 13.5838 0.889342 13.3667 0.784606C11.1166 -0.298168 8.05905 -0.414278 6.15268 1.42369C4.6083 2.91224 4.48248 5.03071 4.50081 5.87644C4.50081 7.74303 4.50023 7.62083 4.50215 7.66395C4.51277 7.905 4.87576 7.89292 4.87576 7.65162V6.05308C4.87576 4.39955 6.22121 3.05347 7.87537 3.05347H12.1248C13.7822 3.05347 15.1244 4.40292 15.1244 6.05308V7.65162C15.1244 7.89288 15.4875 7.90496 15.498 7.66395C15.5 7.62012 15.4994 7.77702 15.4994 5.33068C15.4994 4.75159 15.7231 4.20541 16.1293 3.79338C16.1809 3.74088 16.2139 3.67256 16.223 3.59924C16.2381 3.47534 16.2113 3.42026 16.148 3.32011ZM16.7492 17.6978V19.6667C16.7492 19.8508 16.6 20 16.4159 20H3.58427C3.40021 20 3.25098 19.8508 3.25098 19.6667V17.6978C3.25098 15.7969 4.78998 14.2578 6.69094 14.2578C6.9667 14.2578 7.22925 14.1786 7.45292 14.0321C7.57366 13.953 7.73172 13.9652 7.84362 14.0564C9.09912 15.0789 10.8674 15.0893 12.1397 14.0464C12.2525 13.954 12.4129 13.9419 12.534 14.0232C12.7612 14.1759 13.0287 14.2578 13.3092 14.2578C15.2102 14.2578 16.7492 15.7968 16.7492 17.6978ZM13.7079 18.6252C13.7079 18.4411 13.5587 18.2919 13.3746 18.2919H12.3748C12.1907 18.2919 12.0415 18.4411 12.0415 18.6252C12.0415 18.8092 12.1907 18.9585 12.3748 18.9585H13.3746C13.5587 18.9585 13.7079 18.8092 13.7079 18.6252ZM12.1248 3.72005H7.87537C6.58887 3.72005 5.54234 4.767 5.54234 6.05308V8.80772C5.54234 11.1352 7.48284 13.2142 10.0001 13.2142C12.4464 13.2142 14.4387 11.2337 14.4578 8.79147V6.05308C14.4578 4.76658 13.4113 3.72005 12.1248 3.72005Z" fill="white"/>
</g>
<defs>
<clipPath id="clip0">
<rect width="20" height="20" fill="white"/>
</clipPath>
</defs>
</svg>
