<?xml version="1.0" encoding="utf-8"?><svg xmlns="http://www.w3.org/2000/svg" xmlns:xlink="http://www.w3.org/1999/xlink"><symbol viewBox="0 0 8 8" id="arrow" xmlns="http://www.w3.org/2000/svg"><g clip-path="url(#aclip0)"><path d="M3.604 6.116l-3.44-3.44a.56.56 0 11.792-.792L4 4.928l3.044-3.044a.56.56 0 01.792.792l-3.44 3.44a.558.558 0 01-.792 0z"/></g><defs><clipPath id="aclip0"><path transform="rotate(90 4 4)" d="M0 0h8v8H0z"/></clipPath></defs></symbol><symbol viewBox="0 0 20 20" id="cart" xmlns="http://www.w3.org/2000/svg"><g clip-path="url(#bclip0)"><path d="M19.874 2.909a.577.577 0 00-.45-.216H4.067L3.64.831a.577.577 0 00-.562-.447h-2.5a.577.577 0 000 1.154h2.041l2.914 12.63c.06.261.294.447.563.447h11.559a.577.577 0 100-1.154h-11.1l-.444-1.923h11.582c.27 0 .504-.187.563-.45l1.73-7.693a.577.577 0 00-.111-.487zM8.462 15.385A2.118 2.118 0 006.346 17.5c0 1.167.95 2.116 2.116 2.116a2.118 2.118 0 002.115-2.116 2.118 2.118 0 00-2.115-2.115zm6.922 0A2.118 2.118 0 0013.27 17.5c0 1.167.949 2.116 2.115 2.116A2.118 2.118 0 0017.5 17.5a2.118 2.118 0 00-2.116-2.115z"/></g><defs><clipPath id="bclip0"><path d="M0 0h20v20H0z"/></clipPath></defs></symbol><symbol viewBox="0 0 16 16" id="close" xmlns="http://www.w3.org/2000/svg"><path d="M8.884 8.001l6.933-6.933a.625.625 0 10-.884-.884L8 7.117 1.067.184a.625.625 0 10-.884.884L7.116 8 .183 14.934a.625.625 0 10.884.884L8 8.885l6.933 6.933a.623.623 0 00.884 0 .625.625 0 000-.884L8.884 8.001z"/></symbol><symbol viewBox="0 0 20 20" id="hamburger" xmlns="http://www.w3.org/2000/svg"><path d="M19.219 9.219H.78a.781.781 0 100 1.562h18.44a.781.781 0 100-1.562zm0-6.25H.78a.781.781 0 100 1.562h18.44a.781.781 0 000-1.562zm0 12.5H.78a.781.781 0 100 1.562h18.44a.781.781 0 100-1.562z"/></symbol><symbol viewBox="0 0 20 20" id="search" xmlns="http://www.w3.org/2000/svg"><path d="M19.361 18.217l-4.76-4.95a8.05 8.05 0 001.895-5.192C16.496 3.623 12.873 0 8.42 0 3.968 0 .346 3.623.346 8.075c0 4.453 3.622 8.075 8.075 8.075a7.99 7.99 0 004.626-1.461l4.796 4.988c.2.208.47.323.76.323a1.054 1.054 0 00.76-1.783zM8.421 2.107a5.975 5.975 0 015.968 5.968 5.975 5.975 0 01-5.968 5.969 5.975 5.975 0 01-5.969-5.969 5.975 5.975 0 015.969-5.968z"/></symbol><symbol viewBox="0 0 20 20" id="user" xmlns="http://www.w3.org/2000/svg"><g clip-path="url(#fclip0)"><path d="M11.043 13.943a2.69 2.69 0 01-2.14-.012c-.092-.04-.049-.178.05-.158.675.14 1.372.143 2.043.01.098-.019.14.12.047.16zM16.148 3.32a4.48 4.48 0 00-2.713-1.979.334.334 0 00-.068-.556c-2.25-1.083-5.308-1.2-7.214.639C4.608 2.912 4.483 5.03 4.5 5.876c0 1.867 0 1.745.001 1.788.01.241.374.229.374-.012V6.053c0-1.653 1.345-3 3-3h4.249c1.657 0 3 1.35 3 3v1.599c0 .24.363.253.373.012.002-.044.001.113.001-2.333 0-.58.224-1.126.63-1.538a.336.336 0 00.094-.194c.015-.124-.012-.179-.075-.279zm.601 14.378v1.969a.333.333 0 01-.333.333H3.584a.333.333 0 01-.333-.333v-1.97a3.44 3.44 0 013.44-3.44c.276 0 .538-.078.762-.225a.332.332 0 01.39.024 3.366 3.366 0 004.297-.01.332.332 0 01.394-.023c.227.153.495.235.775.235a3.439 3.439 0 013.44 3.44zm-3.041.927a.333.333 0 00-.333-.333h-1a.333.333 0 100 .666h1a.333.333 0 00.333-.333zM12.125 3.72h-4.25a2.336 2.336 0 00-2.333 2.333v2.755c0 2.327 1.94 4.406 4.458 4.406a4.463 4.463 0 004.458-4.423V6.053a2.336 2.336 0 00-2.333-2.333z"/></g><defs><clipPath id="fclip0"><path d="M0 0h20v20H0z"/></clipPath></defs></symbol></svg>