<?xml version="1.0" encoding="utf-8"?><svg xmlns="http://www.w3.org/2000/svg" xmlns:xlink="http://www.w3.org/1999/xlink"><symbol viewBox="0 0 8 8" id="arrow" xmlns="http://www.w3.org/2000/svg"><path d="M3.604 6.116l-3.44-3.44a.56.56 0 11.792-.792L4 4.928l3.044-3.044a.56.56 0 01.792.792l-3.44 3.44a.558.558 0 01-.792 0z"/></symbol><symbol viewBox="0 0 96 96" id="arrow-large" xmlns="http://www.w3.org/2000/svg"><path d="M84 44H21.656l21.456-21.456a4.001 4.001 0 00-5.657-5.657L9.172 45.171a3.996 3.996 0 00-.498.61c-.067.101-.114.21-.171.315-.067.124-.142.242-.196.373-.056.135-.088.276-.129.416-.032.111-.075.217-.098.331A3.98 3.98 0 008 48l.001.008c0 .259.027.519.078.774.024.121.069.232.104.349.039.133.07.268.123.397.058.139.136.265.208.396.054.098.096.198.159.292.147.221.314.427.501.614l28.282 28.281a4.001 4.001 0 005.657-5.657L21.657 52H84a4 4 0 000-8z"/></symbol><symbol viewBox="0 0 20 20" id="cart" xmlns="http://www.w3.org/2000/svg"><path d="M19.874 2.909a.577.577 0 00-.45-.216H4.067L3.64.831a.577.577 0 00-.562-.447h-2.5a.577.577 0 000 1.154h2.041l2.914 12.63c.06.261.294.447.563.447h11.559a.577.577 0 100-1.154h-11.1l-.444-1.923h11.582c.27 0 .504-.187.563-.45l1.73-7.693a.577.577 0 00-.111-.487zM8.462 15.385A2.118 2.118 0 006.346 17.5c0 1.167.95 2.116 2.116 2.116a2.118 2.118 0 002.115-2.116 2.118 2.118 0 00-2.115-2.115zm6.922 0A2.118 2.118 0 0013.27 17.5c0 1.167.949 2.116 2.115 2.116A2.118 2.118 0 0017.5 17.5a2.118 2.118 0 00-2.116-2.115z"/></symbol><symbol viewBox="0 0 20 20" id="cart_new" xmlns="http://www.w3.org/2000/svg"><path d="M6 16a1.99 1.99 0 00-1.99 2c0 1.105.885 2 1.99 2a2 2 0 100-4zM0 0v2h2l3.595 7.585-1.35 2.45C4.09 12.325 4 12.65 4 13a2 2 0 002 2h12v-2H6.425c-.14 0-.25-.11-.25-.25 0-.045.01-.085.03-.12L7.1 11h7.45c.75 0 1.405-.415 1.75-1.03l3.575-6.49A1 1 0 0019 2H4.215l-.95-2H0zm16 16a1.99 1.99 0 00-1.99 2c0 1.105.885 2 1.99 2a2 2 0 100-4z"/></symbol><symbol viewBox="0 0 16 16" id="close" xmlns="http://www.w3.org/2000/svg"><path d="M8.884 8.001l6.933-6.933a.625.625 0 10-.884-.884L8 7.117 1.067.184a.625.625 0 10-.884.884L7.116 8 .183 14.934a.625.625 0 10.884.884L8 8.885l6.933 6.933a.623.623 0 00.884 0 .625.625 0 000-.884L8.884 8.001z"/></symbol><symbol viewBox="0 0 24 24" id="eye" xmlns="http://www.w3.org/2000/svg"><g clip-path="url(#fclip0)"><path d="M12 8.727a3.275 3.275 0 00-3.272 3.272A3.275 3.275 0 0012 15.272a3.275 3.275 0 003.273-3.273A3.275 3.275 0 0012 8.727z"/><path d="M12 3.817C6.545 3.817 1.887 7.21 0 12c1.887 4.79 6.545 8.182 12 8.182 5.46 0 10.113-3.393 12-8.182-1.887-4.789-6.54-8.182-12-8.182zm0 13.637a5.457 5.457 0 01-5.455-5.455A5.457 5.457 0 0112 6.545a5.457 5.457 0 015.455 5.454A5.457 5.457 0 0112 17.454z"/></g><defs><clipPath id="fclip0"><path d="M0 0h24v24H0z"/></clipPath></defs></symbol><symbol viewBox="0 0 20 20" id="hamburger" xmlns="http://www.w3.org/2000/svg"><path d="M19.219 9.219H.78a.781.781 0 100 1.562h18.44a.781.781 0 100-1.562zm0-6.25H.78a.781.781 0 100 1.562h18.44a.781.781 0 000-1.562zm0 12.5H.78a.781.781 0 100 1.562h18.44a.781.781 0 100-1.562z"/></symbol><symbol viewBox="0 0 24 24" id="invoice" xmlns="http://www.w3.org/2000/svg"><path d="M21.844 20.25H2.156A2.159 2.159 0 010 18.094V5.906C0 4.717.967 3.75 2.156 3.75h19.688c1.189 0 2.156.967 2.156 2.156v12.188a2.159 2.159 0 01-2.156 2.156zm-19.688-15a.657.657 0 00-.656.656v12.188c0 .362.294.656.656.656h19.688a.657.657 0 00.656-.656V5.906a.657.657 0 00-.656-.656H2.156z"/><path d="M17.142 14.143a.75.75 0 01-.588-1.214c.21-.267.321-.588.321-.929 0-.34-.111-.662-.321-.928a.75.75 0 011.178-.929c.415.526.643 1.186.643 1.857s-.229 1.33-.643 1.857a.749.749 0 01-.59.286z"/><path d="M19.004 16.004a.75.75 0 01-.558-1.25A4.117 4.117 0 0019.499 12a4.117 4.117 0 00-1.053-2.754.75.75 0 011.116-1.002A5.615 5.615 0 0121 12c0 1.389-.51 2.722-1.437 3.755a.748.748 0 01-.558.25zM5.813 12H4.688A1.69 1.69 0 013 10.312V9.188C3 8.256 3.757 7.5 4.688 7.5h1.125c.93 0 1.687.757 1.687 1.688v1.124A1.69 1.69 0 015.812 12zM4.688 9a.188.188 0 00-.188.188v1.124c0 .104.084.188.188.188h1.125A.188.188 0 006 10.312V9.188A.188.188 0 005.812 9H4.688z"/></symbol><symbol viewBox="0 0 24 24" id="products" xmlns="http://www.w3.org/2000/svg"><g clip-path="url(#iclip0)"><path d="M3.923 9.792c.232.217.725.264 1-.058l1.76-2.008A.701.701 0 105.626 6.8l-1.29 1.471-.346-.312A.703.703 0 003.048 9l.875.792zm8.647-1.251H8.514a.702.702 0 100 1.404h4.054a.702.702 0 100-1.404zm0 2.912H3.462a.702.702 0 100 1.404h9.108a.702.702 0 100-1.404zm-8.647 6.385c.232.217.725.264 1-.058l1.76-2.008a.701.701 0 10-1.057-.925l-1.29 1.471-.346-.312a.703.703 0 00-.942 1.04l.875.792zm8.647-1.253H8.514a.702.702 0 100 1.404h4.054a.702.702 0 100-1.404zm0 2.87H3.462a.702.702 0 100 1.404h9.108a.702.702 0 100-1.404z"/><path d="M22.274 0H8.895c-.127 0-.28.026-.43.084a2.274 2.274 0 00-2.037.613c-.26.254-.45.56-.564.896h-.751c-.53 0-.965.414-1 .935H1.636C.74 2.528.012 3.256.012 4.15v18.228C.012 23.272.74 24 1.636 24h12.788c.75 0 1.382-.51 1.568-1.2h6.4c.845-.05 1.612-.817 1.596-1.712V1.712C23.988.768 23.219 0 22.274 0zM5.515 2.997h.931a.702.702 0 00.703-.688.886.886 0 01.881-.863c.476 0 .872.387.881.863.008.382.32.688.703.688h.93v.773H5.516v-.773zm9.128 19.38a.22.22 0 01-.219.22H1.636a.219.219 0 01-.219-.22V4.15c0-.12.098-.218.219-.218H4.11v.15c0 .602.49 1.092 1.094 1.092h5.652c.603 0 1.094-.49 1.094-1.093v-.15h2.475a.22.22 0 01.218.22v18.227zm7.94-1.289a.307.307 0 01-.273.306l-.02.003h-6.242V4.15c0-.894-.728-1.622-1.623-1.622h-2.479a1.012 1.012 0 00-1.007-.935h-.743a2.284 2.284 0 00-.074-.19h12.152c.17 0 .309.14.309.31v19.375z"/></g><defs><clipPath id="iclip0"><path d="M0 0h24v24H0z"/></clipPath></defs></symbol><symbol viewBox="0 0 20 20" id="search" xmlns="http://www.w3.org/2000/svg"><path d="M19.361 18.217l-4.76-4.95a8.05 8.05 0 001.895-5.192C16.496 3.623 12.873 0 8.42 0 3.968 0 .346 3.623.346 8.075c0 4.453 3.622 8.075 8.075 8.075a7.99 7.99 0 004.626-1.461l4.796 4.988c.2.208.47.323.76.323a1.054 1.054 0 00.76-1.783zM8.421 2.107a5.975 5.975 0 015.968 5.968 5.975 5.975 0 01-5.968 5.969 5.975 5.975 0 01-5.969-5.969 5.975 5.975 0 015.969-5.968z"/></symbol><symbol viewBox="0 0 24 24" id="settings" xmlns="http://www.w3.org/2000/svg"><path d="M12 24a2.628 2.628 0 01-2.625-2.625v-.764a8.909 8.909 0 01-1.607-.666l-.541.54a2.608 2.608 0 01-1.856.77 2.629 2.629 0 01-1.856-4.481l.54-.541a8.917 8.917 0 01-.666-1.608h-.764c-.7 0-1.36-.273-1.856-.769A2.608 2.608 0 010 12a2.628 2.628 0 012.625-2.625h.764a8.914 8.914 0 01.666-1.607l-.54-.541a2.607 2.607 0 01-.77-1.856 2.629 2.629 0 014.481-1.856l.542.54a8.917 8.917 0 011.607-.666v-.764c0-.7.273-1.36.769-1.856a2.608 2.608 0 012.379-.717 2.633 2.633 0 012.102 2.573v.764a8.913 8.913 0 011.607.666l.541-.54a2.608 2.608 0 011.856-.77 2.629 2.629 0 011.856 4.48l-.54.543c.274.513.497 1.05.666 1.607h.764c.7 0 1.36.273 1.856.769S24 11.299 24 12a2.628 2.628 0 01-2.625 2.625h-.764a8.908 8.908 0 01-.666 1.607l.54.541c.496.496.769 1.155.769 1.856a2.619 2.619 0 01-2.625 2.624 2.616 2.616 0 01-1.856-.768l-.54-.54a8.925 8.925 0 01-1.608.666v.764c0 .7-.273 1.36-.769 1.856a2.615 2.615 0 01-1.332.716h-.001A2.662 2.662 0 0112 24zm.375-.788zm-4.73-4.954c.136 0 .273.037.395.113a7.433 7.433 0 002.255.934.75.75 0 01.58.73v1.34a1.126 1.126 0 001.92.795c.213-.212.33-.495.33-.795v-1.34a.75.75 0 01.58-.73 7.434 7.434 0 002.255-.934.75.75 0 01.926.107l.948.947a1.127 1.127 0 001.92-.796c0-.3-.117-.583-.33-.795l-.947-.948a.75.75 0 01-.106-.926 7.433 7.433 0 00.934-2.255.75.75 0 01.73-.58h1.34a1.126 1.126 0 00.795-1.92 1.117 1.117 0 00-.795-.33h-1.34a.75.75 0 01-.73-.58 7.434 7.434 0 00-.934-2.255.75.75 0 01.107-.926l.947-.948a1.127 1.127 0 00-.796-1.92c-.3 0-.583.117-.795.33l-.948.947a.75.75 0 01-.926.106 7.433 7.433 0 00-2.255-.934.75.75 0 01-.58-.73v-1.34A1.128 1.128 0 0012 1.5c-.3 0-.583.117-.795.33-.213.212-.33.495-.33.795v1.34a.75.75 0 01-.58.73c-.798.185-1.557.5-2.255.934a.75.75 0 01-.926-.106l-.948-.948a1.127 1.127 0 00-1.92.796c0 .3.117.583.33.795l.946.948a.75.75 0 01.107.926 7.434 7.434 0 00-.934 2.255.75.75 0 01-.73.58h-1.34a1.126 1.126 0 00-.795 1.92c.212.213.495.33.795.33h1.34a.75.75 0 01.73.58c.185.798.5 1.556.934 2.255a.75.75 0 01-.107.926l-.947.948a1.127 1.127 0 00.796 1.92c.3 0 .583-.117.795-.33l.948-.947a.75.75 0 01.53-.22z"/><path d="M12 17.25A5.256 5.256 0 016.75 12a5.256 5.256 0 015.69-5.231 5.223 5.223 0 013.414 1.666A5.234 5.234 0 0117.25 12a5.233 5.233 0 01-1.396 3.565A5.23 5.23 0 0112 17.25zm0-9A3.754 3.754 0 008.25 12a3.754 3.754 0 004.06 3.737A3.768 3.768 0 0015.75 12c0-1.937-1.51-3.578-3.437-3.737A3.61 3.61 0 0012 8.25z"/></symbol><symbol viewBox="0 0 20 20" id="user" xmlns="http://www.w3.org/2000/svg"><g clip-path="url(#lclip0)"><path d="M11.043 13.943a2.69 2.69 0 01-2.14-.012c-.092-.04-.049-.178.05-.158.675.14 1.372.143 2.043.01.098-.019.14.12.047.16zM16.148 3.32a4.48 4.48 0 00-2.713-1.979.334.334 0 00-.068-.556c-2.25-1.083-5.308-1.2-7.214.639C4.608 2.912 4.483 5.03 4.5 5.876c0 1.867 0 1.745.001 1.788.01.241.374.229.374-.012V6.053c0-1.653 1.345-3 3-3h4.249c1.657 0 3 1.35 3 3v1.599c0 .24.363.253.373.012.002-.044.001.113.001-2.333 0-.58.224-1.126.63-1.538a.336.336 0 00.094-.194c.015-.124-.012-.179-.075-.279zm.601 14.378v1.969a.333.333 0 01-.333.333H3.584a.333.333 0 01-.333-.333v-1.97a3.44 3.44 0 013.44-3.44c.276 0 .538-.078.762-.225a.332.332 0 01.39.024 3.366 3.366 0 004.297-.01.332.332 0 01.394-.023c.227.153.495.235.775.235a3.439 3.439 0 013.44 3.44zm-3.041.927a.333.333 0 00-.333-.333h-1a.333.333 0 100 .666h1a.333.333 0 00.333-.333zM12.125 3.72h-4.25a2.336 2.336 0 00-2.333 2.333v2.755c0 2.327 1.94 4.406 4.458 4.406a4.463 4.463 0 004.458-4.423V6.053a2.336 2.336 0 00-2.333-2.333z"/></g><defs><clipPath id="lclip0"><path d="M0 0h20v20H0z"/></clipPath></defs></symbol></svg>